<svg xmlns="http://www.w3.org/2000/svg" viewBox="0 0 96 96" role="img" aria-label="Firewall">
  <defs>
    <linearGradient id="fwBody" x1="0" y1="0" x2="0" y2="1">
      <stop offset="0%" stop-color="#fb7185"/>
      <stop offset="100%" stop-color="#be123c"/>
    </linearGradient>
    <linearGradient id="flame" x1="0" y1="1" x2="0" y2="0">
      <stop offset="0%" stop-color="#fbbf24"/>
      <stop offset="100%" stop-color="#f97316"/>
    </linearGradient>
  </defs>
  <rect x="12" y="20" width="72" height="56" rx="6" fill="url(#fwBody)" stroke="#7f1d1d" stroke-width="2"/>
  <g fill="#ffffff" opacity="0.9">
    <rect x="18" y="26" width="14" height="8" rx="1"/>
    <rect x="36" y="26" width="14" height="8" rx="1"/>
    <rect x="54" y="26" width="14" height="8" rx="1"/>
    <rect x="72" y="26" width="6"  height="8" rx="1"/>
    <rect x="18" y="38" width="6"  height="8" rx="1"/>
    <rect x="28" y="38" width="14" height="8" rx="1"/>
    <rect x="46" y="38" width="14" height="8" rx="1"/>
    <rect x="64" y="38" width="14" height="8" rx="1"/>
  </g>
  <path d="M48 52 C52 58 58 60 58 66 C58 70 54 72 50 72 C54 72 54 68 52 66 C52 68 50 70 48 70 C44 70 42 66 44 62 C46 60 46 56 48 52 Z"
        fill="url(#flame)" stroke="#7f1d1d" stroke-width="1.2"/>
</svg>
