<svg xmlns="http://www.w3.org/2000/svg" viewBox="0 0 96 96" role="img" aria-label="L2 Switch">
  <defs>
    <linearGradient id="l2Body" x1="0" y1="0" x2="0" y2="1">
      <stop offset="0%" stop-color="#2dd4bf"/>
      <stop offset="100%" stop-color="#0f766e"/>
    </linearGradient>
  </defs>
  <rect x="12" y="28" width="72" height="40" rx="6" fill="url(#l2Body)" stroke="#134e4a" stroke-width="2"/>
  <g fill="#ffffff">
    <rect x="20" y="40" width="8" height="4" rx="1"/>
    <rect x="32" y="40" width="8" height="4" rx="1"/>
    <rect x="44" y="40" width="8" height="4" rx="1"/>
    <rect x="56" y="40" width="8" height="4" rx="1"/>
    <rect x="68" y="40" width="8" height="4" rx="1"/>
    <rect x="20" y="50" width="8" height="4" rx="1"/>
    <rect x="32" y="50" width="8" height="4" rx="1"/>
    <rect x="44" y="50" width="8" height="4" rx="1"/>
    <rect x="56" y="50" width="8" height="4" rx="1"/>
    <rect x="68" y="50" width="8" height="4" rx="1"/>
  </g>
  <text x="48" y="82" font-family="ui-sans-serif, system-ui" font-size="10" text-anchor="middle" fill="#134e4a" font-weight="700">L2</text>
</svg>
