<svg xmlns="http://www.w3.org/2000/svg" viewBox="0 0 96 96" role="img" aria-label="L2 Switch">
  <defs>
    <linearGradient id="l2g" x1="0" y1="0" x2="0" y2="1">
      <stop offset="0%" stop-color="#14b8a6"/>
      <stop offset="100%" stop-color="#0d9488"/>
    </linearGradient>
  </defs>
  <rect x="10" y="34" width="76" height="28" rx="6" fill="url(#l2g)" stroke="#115e59" stroke-width="1.5"/>
  <g stroke="#0f766e" stroke-width="1" fill="#ecfeff">
    <rect x="16" y="42" width="8" height="5" rx="1"/>
    <rect x="28" y="42" width="8" height="5" rx="1"/>
    <rect x="40" y="42" width="8" height="5" rx="1"/>
    <rect x="52" y="42" width="8" height="5" rx="1"/>
    <rect x="64" y="42" width="8" height="5" rx="1"/>
    <rect x="16" y="50" width="8" height="5" rx="1"/>
    <rect x="28" y="50" width="8" height="5" rx="1"/>
    <rect x="40" y="50" width="8" height="5" rx="1"/>
    <rect x="52" y="50" width="8" height="5" rx="1"/>
    <rect x="64" y="50" width="8" height="5" rx="1"/>
  </g>
  <circle cx="79" cy="48" r="2" fill="#4ade80"/>
  <rect x="10" y="66" width="76" height="2" rx="1" fill="#115e59" opacity="0.2"/>
</svg>
