<svg xmlns="http://www.w3.org/2000/svg" viewBox="0 0 96 96" role="img" aria-label="L3 Switch">
  <defs>
    <linearGradient id="l3g" x1="0" y1="0" x2="0" y2="1">
      <stop offset="0%" stop-color="#8b5cf6"/>
      <stop offset="100%" stop-color="#6d28d9"/>
    </linearGradient>
  </defs>
  <rect x="10" y="30" width="76" height="36" rx="7" fill="url(#l3g)" stroke="#4c1d95" stroke-width="1.5"/>
  <g stroke="#ffffff" stroke-width="2" stroke-linecap="round" fill="none">
    <path d="M24 42 L24 54"/>
    <path d="M20 46 L24 42 L28 46"/>
    <path d="M20 50 L24 54 L28 50"/>
    <path d="M72 42 L72 54"/>
    <path d="M68 46 L72 42 L76 46"/>
    <path d="M68 50 L72 54 L76 50"/>
  </g>
  <g fill="#e9d5ff">
    <circle cx="40" cy="44" r="2"/>
    <circle cx="48" cy="44" r="2"/>
    <circle cx="56" cy="44" r="2"/>
    <circle cx="40" cy="52" r="2"/>
    <circle cx="48" cy="52" r="2"/>
    <circle cx="56" cy="52" r="2"/>
  </g>
  <rect x="10" y="70" width="76" height="2" rx="1" fill="#4c1d95" opacity="0.2"/>
</svg>
